<mxfile host="app.diagrams.net" modified="2024-04-10T03:10:23.652Z" agent="Mozilla/5.0 (Windows NT 10.0; Win64; x64) AppleWebKit/537.36 (KHTML, like Gecko) Chrome/123.0.0.0 Safari/537.36" version="24.2.3" etag="DCFF9PJBhhoPmWity513" type="github">
  <diagram name="페이지-1" id="PZPOULIiBIYAkmUvbgDG">
    <mxGraphModel>
      <root>
        <mxCell id="0" />
        <mxCell id="1" parent="0" />
      </root>
    </mxGraphModel>
  </diagram>
</mxfile>
